<svg width="42" height="42" viewBox="0 0 42 42" fill="none" xmlns="http://www.w3.org/2000/svg">
<path d="M21 40.75C31.9076 40.75 40.75 31.9076 40.75 21C40.75 10.0924 31.9076 1.25 21 1.25C10.0924 1.25 1.25 10.0924 1.25 21C1.25 31.9076 10.0924 40.75 21 40.75Z" fill="#FEDB75"/>
<path d="M41 20.8999V20.9999C41 32.0499 32.05 40.9999 21 40.9999C12.4 40.9999 5.05 35.5499 2.25 27.8999C6.75 30.9999 12.2 32.7999 18.1 32.7999C27.55 32.7999 35.95 28.0999 41 20.8999Z" fill="#E5C25C"/>
<path d="M21 40.75C31.9076 40.75 40.75 31.9076 40.75 21C40.75 10.0924 31.9076 1.25 21 1.25C10.0924 1.25 1.25 10.0924 1.25 21C1.25 31.9076 10.0924 40.75 21 40.75Z" stroke="#002C15" stroke-miterlimit="10"/>
<path d="M23.5 28.5V24C23.5 23.5333 23.5 23.2999 23.4092 23.1217C23.3293 22.9649 23.2018 22.8374 23.045 22.7575C22.8667 22.6667 22.6334 22.6667 22.1667 22.6667H19.8333C19.3666 22.6667 19.1333 22.6667 18.955 22.7575C18.7982 22.8374 18.6707 22.9649 18.5908 23.1217C18.5 23.2999 18.5 23.5333 18.5 24V28.5M26.8333 28.5V16.1667C26.8333 15.2332 26.8333 14.7665 26.6517 14.41C26.4919 14.0964 26.2369 13.8414 25.9233 13.6817C25.5668 13.5 25.1001 13.5 24.1667 13.5H17.8333C16.8999 13.5 16.4332 13.5 16.0767 13.6817C15.7631 13.8414 15.5081 14.0964 15.3483 14.41C15.1667 14.7665 15.1667 15.2332 15.1667 16.1667V28.5M28.5 28.5H13.5M18.9167 17.6667H18.925M23.0833 17.6667H23.0917M19.3333 17.6667C19.3333 17.8968 19.1468 18.0833 18.9167 18.0833C18.6865 18.0833 18.5 17.8968 18.5 17.6667C18.5 17.4365 18.6865 17.25 18.9167 17.25C19.1468 17.25 19.3333 17.4365 19.3333 17.6667ZM23.5 17.6667C23.5 17.8968 23.3135 18.0833 23.0833 18.0833C22.8532 18.0833 22.6667 17.8968 22.6667 17.6667C22.6667 17.4365 22.8532 17.25 23.0833 17.25C23.3135 17.25 23.5 17.4365 23.5 17.6667Z" stroke="#00332C" stroke-width="1.5" stroke-linecap="round" stroke-linejoin="round"/>
</svg>
