<svg width="56" height="56" viewBox="0 0 56 56" fill="none" xmlns="http://www.w3.org/2000/svg">
<g id="Canada (CA)" clip-path="url(#clip0_729_10263)">
<path id="Vector" d="M13.1455 -9H42.8994V63.6663H13.1367L13.1455 -9Z" fill="white"/>
<path id="Vector_2" d="M-1.72266 -8.99994H13.1499V63.6664H-1.72266V-8.99994ZM42.9039 -8.99994H57.7764V63.6664H42.9126L42.9039 -8.99994Z" fill="#D52B1E"/>
<path id="Vector_3" d="M17.6484 30.603L18.7288 30.2429C19.3786 29.5798 18.3389 27.5498 17.9977 26.3383C18.9806 26.5429 20.4508 27.0996 20.8894 26.9113C21.3281 26.7148 21.5555 25.8472 21.8804 25.3151L24.4147 28.2046C24.6584 28.3356 24.8696 28.2701 24.9589 28.0245L23.8461 21.959L25.7062 22.9985C25.8199 23.0968 25.9662 23.0804 26.1124 22.9412L28.0293 19.0285L29.8976 22.7939C29.9951 22.9822 30.1575 23.0477 30.32 22.974L32.2532 21.8771L31.0348 28C31.1079 28.2456 31.2297 28.3602 31.514 28.2865L34.162 25.356L34.9093 26.7885C35.0962 27.3206 37.996 26.3137 37.996 26.3137C37.8498 27.648 36.8263 29.7599 37.5411 30.3165L38.4102 30.6439L33.431 34.8186C33.1223 35.9564 33.4229 36.333 33.7559 37.0451L28.338 36.3903L28.5898 41.8419L27.4607 41.8665L27.5907 36.3821L22.1809 37.0697C22.5059 36.4803 23.0176 36.1447 22.6358 35.0233L17.6484 30.603Z" fill="#D52B1E"/>
</g>
<defs>
<clipPath id="clip0_729_10263">
<rect width="56.0569" height="72.6663" fill="white" transform="translate(0 -9)"/>
</clipPath>
</defs>
</svg>
