<svg width="81" height="80" viewBox="0 0 81 80" fill="none" xmlns="http://www.w3.org/2000/svg">
<g id="Reporting and data 1" clip-path="url(#clip0_825_10817)">
<path id="Vector" d="M40.332 79.5C62.1473 79.5 79.832 61.8152 79.832 40C79.832 18.1848 62.1473 0.5 40.332 0.5C18.5168 0.5 0.832031 18.1848 0.832031 40C0.832031 61.8152 18.5168 79.5 40.332 79.5Z" fill="#69C2B6"/>
<g id="Group">
<path id="Vector_2" d="M80.332 39.8V40C80.332 62.1 62.432 80 40.332 80C23.132 80 8.43203 69.1 2.83203 53.8C11.832 60 22.732 63.6 34.532 63.6C53.432 63.6 70.232 54.2 80.332 39.8Z" fill="#1EA492"/>
</g>
<path id="Vector_3" d="M40.332 79.5C62.1473 79.5 79.832 61.8152 79.832 40C79.832 18.1848 62.1473 0.5 40.332 0.5C18.5168 0.5 0.832031 18.1848 0.832031 40C0.832031 61.8152 18.5168 79.5 40.332 79.5Z" stroke="#002C15" stroke-miterlimit="10"/>
<path id="Vector_4" d="M45.932 26.4V24M52.232 28.1L53.932 26.4M53.932 34.4H56.332M56.232 41.6C55.432 49.7 48.632 56 40.332 56C31.532 56 24.332 48.8 24.332 40C24.332 31.7 30.632 24.9 38.732 24.1M40.332 33.6H46.732V40M46.132 33.6C42.332 38.9 36.132 42.4 29.132 42.4C27.532 42.4 25.932 42.2 24.432 41.9" stroke="#002C15" stroke-width="2" stroke-linecap="round" stroke-linejoin="round"/>
</g>
<defs>
<clipPath id="clip0_825_10817">
<rect width="80" height="80" fill="white" transform="translate(0.332031)"/>
</clipPath>
</defs>
</svg>
