<svg width="81" height="80" viewBox="0 0 81 80" fill="none" xmlns="http://www.w3.org/2000/svg">
<g id="Global coverage 3" clip-path="url(#clip0_825_10807)">
<path id="Vector" d="M40.668 79.5C62.4832 79.5 80.168 61.8152 80.168 40C80.168 18.1848 62.4832 0.5 40.668 0.5C18.8527 0.5 1.16797 18.1848 1.16797 40C1.16797 61.8152 18.8527 79.5 40.668 79.5Z" fill="#69C2B6"/>
<g id="Group">
<path id="Vector_2" d="M80.668 39.8V40C80.668 62.1 62.768 80 40.668 80C23.468 80 8.76797 69.1 3.16797 53.8C12.168 60 23.068 63.6 34.868 63.6C53.768 63.6 70.568 54.2 80.668 39.8Z" fill="#1EA492"/>
</g>
<path id="Vector_3" d="M40.668 79.5C62.4832 79.5 80.168 61.8152 80.168 40C80.168 18.1848 62.4832 0.5 40.668 0.5C18.8527 0.5 1.16797 18.1848 1.16797 40C1.16797 61.8152 18.8527 79.5 40.668 79.5Z" stroke="#002C15" stroke-miterlimit="10"/>
<path id="Vector_4" d="M24.668 40H56.668M24.668 40C24.668 48.8 31.868 56 40.668 56M24.668 40C24.668 31.2 31.868 24 40.668 24M56.668 40C56.668 48.8 49.468 56 40.668 56M56.668 40C56.668 31.2 49.468 24 40.668 24M40.668 56C44.668 51.6444 46.9791 45.9556 47.068 40C46.9791 34.0444 44.668 28.3556 40.668 24M40.668 56C36.668 51.6444 34.3569 45.9556 34.268 40C34.3569 34.0444 36.668 28.3556 40.668 24" stroke="#002C15" stroke-width="2" stroke-linecap="round" stroke-linejoin="round"/>
</g>
<defs>
<clipPath id="clip0_825_10807">
<rect width="80" height="80" fill="white" transform="translate(0.667969)"/>
</clipPath>
</defs>
</svg>
