<svg width="60" height="60" viewBox="0 0 60 60" fill="none" xmlns="http://www.w3.org/2000/svg">
<g id="Global coverage 3" clip-path="url(#clip0_841_9736)">
<path id="Vector" d="M30 59.625C46.3614 59.625 59.625 46.3614 59.625 30C59.625 13.6386 46.3614 0.375 30 0.375C13.6386 0.375 0.375 13.6386 0.375 30C0.375 46.3614 13.6386 59.625 30 59.625Z" fill="#69C2B6"/>
<g id="Group">
<path id="Vector_2" d="M60 29.8496V29.9996C60 46.5746 46.575 59.9996 30 59.9996C17.1 59.9996 6.075 51.8246 1.875 40.3496C8.625 44.9996 16.8 47.6996 25.65 47.6996C39.825 47.6996 52.425 40.6496 60 29.8496Z" fill="#1EA492"/>
</g>
<path id="Vector_3" d="M30 59.625C46.3614 59.625 59.625 46.3614 59.625 30C59.625 13.6386 46.3614 0.375 30 0.375C13.6386 0.375 0.375 13.6386 0.375 30C0.375 46.3614 13.6386 59.625 30 59.625Z" stroke="#002C15" stroke-miterlimit="10"/>
<path id="Vector_4" d="M14 30H46M14 30C14 38.8 21.2 46 30 46M14 30C14 21.2 21.2 14 30 14M46 30C46 38.8 38.8 46 30 46M46 30C46 21.2 38.8 14 30 14M30 46C34 41.6444 36.3111 35.9556 36.4 30C36.3111 24.0444 34 18.3556 30 14M30 46C26 41.6444 23.6889 35.9556 23.6 30C23.6889 24.0444 26 18.3556 30 14" stroke="#002C15" stroke-width="2" stroke-linecap="round" stroke-linejoin="round"/>
</g>
<defs>
<clipPath id="clip0_841_9736">
<rect width="60" height="60" fill="white"/>
</clipPath>
</defs>
</svg>
