<svg width="60" height="60" viewBox="0 0 60 60" fill="none" xmlns="http://www.w3.org/2000/svg">
<g id="Reporting and data 2" clip-path="url(#clip0_841_9726)">
<path id="Vector" d="M30 59.625C46.3614 59.625 59.625 46.3614 59.625 30C59.625 13.6386 46.3614 0.375 30 0.375C13.6386 0.375 0.375 13.6386 0.375 30C0.375 46.3614 13.6386 59.625 30 59.625Z" fill="#69C2B6"/>
<g id="Group">
<path id="Vector_2" d="M60 29.8496V29.9996C60 46.5746 46.575 59.9996 30 59.9996C17.1 59.9996 6.075 51.8246 1.875 40.3496C8.625 44.9996 16.8 47.6996 25.65 47.6996C39.825 47.6996 52.425 40.6496 60 29.8496Z" fill="#1EA492"/>
</g>
<path id="Vector_3" d="M30 59.625C46.3614 59.625 59.625 46.3614 59.625 30C59.625 13.6386 46.3614 0.375 30 0.375C13.6386 0.375 0.375 13.6386 0.375 30C0.375 46.3614 13.6386 59.625 30 59.625Z" stroke="#00332C" stroke-miterlimit="10"/>
<path id="Icon" d="M25.1842 39.1673H16.3966M21.1898 30.3797H14M25.1842 21.5921H17.1955M37.9661 16L27.4267 30.7552C26.9602 31.4082 26.727 31.7348 26.7371 32.007C26.7459 32.2441 26.8596 32.4649 27.0473 32.6098C27.263 32.7763 27.6643 32.7763 28.4668 32.7763H36.3684L34.7707 44.7594L45.3101 30.0042C45.7765 29.3511 46.0098 29.0246 45.9997 28.7523C45.9909 28.5153 45.8772 28.2944 45.6895 28.1495C45.4738 27.9831 45.0725 27.9831 44.2699 27.9831H36.3684L37.9661 16Z" stroke="#00332C" stroke-width="2" stroke-linecap="round" stroke-linejoin="round"/>
</g>
<defs>
<clipPath id="clip0_841_9726">
<rect width="60" height="60" fill="white"/>
</clipPath>
</defs>
</svg>
