<svg width="60" height="60" viewBox="0 0 60 60" fill="none" xmlns="http://www.w3.org/2000/svg">
<g id="Secured and trusted 2" clip-path="url(#clip0_841_9756)">
<path id="Vector" d="M30.375 60.375C46.9435 60.375 60.375 46.9435 60.375 30.375C60.375 13.8065 46.9435 0.375 30.375 0.375C13.8065 0.375 0.375 13.8065 0.375 30.375C0.375 46.9435 13.8065 60.375 30.375 60.375Z" fill="#69C2B6"/>
<g id="Group">
<path id="Vector_2" d="M60 29.8496V29.9996C60 46.5746 46.575 59.9996 30 59.9996C17.1 59.9996 6.075 51.8246 1.875 40.3496C8.625 44.9996 16.8 47.6996 25.65 47.6996C39.825 47.6996 52.425 40.6496 60 29.8496Z" fill="#1EA492"/>
</g>
<path id="Vector_3" d="M30 59.625C46.3614 59.625 59.625 46.3614 59.625 30C59.625 13.6386 46.3614 0.375 30 0.375C13.6386 0.375 0.375 13.6386 0.375 30C0.375 46.3614 13.6386 59.625 30 59.625Z" stroke="#002C15" stroke-miterlimit="10"/>
<path id="Vector_4" d="M25.1114 29.2423L28.3203 32.4513L35.6295 25.1421M43.0279 30.0446C43.0279 37.9777 34.3816 43.7716 31.1727 45.6435C30.8162 45.8217 30.6379 46 30.3705 46C30.1922 46 29.9248 46 29.6574 46C29.39 45.9109 29.2117 45.8217 28.8552 45.6435C25.7354 43.7716 17 37.9777 17 30.0446V22.2897C17 20.9526 17 20.3287 17.1783 19.7939C17.3565 19.2591 17.7131 18.9025 18.0696 18.546C18.5153 18.1894 19.1393 17.922 20.2981 17.4763L29.0334 14.1783C29.39 14.0891 29.5682 14 29.7465 14C29.9248 14 30.0139 14 30.1922 14C30.3705 14 30.5487 14.0891 30.9053 14.1783L39.6407 17.4763C40.8886 17.922 41.4234 18.1894 41.8691 18.546C42.2256 18.9025 42.5822 19.3482 42.7604 19.7939C42.9387 20.3287 42.9387 21.0418 42.9387 22.2897V30.0446H43.0279Z" stroke="#002C15" stroke-width="2" stroke-linecap="round" stroke-linejoin="round"/>
</g>
<defs>
<clipPath id="clip0_841_9756">
<rect width="60" height="60" fill="white"/>
</clipPath>
</defs>
</svg>
