<svg width="60" height="60" viewBox="0 0 60 60" fill="none" xmlns="http://www.w3.org/2000/svg">
<g id="Reporting and data 1" clip-path="url(#clip0_841_9746)">
<path id="Vector" d="M30 59.625C46.3614 59.625 59.625 46.3614 59.625 30C59.625 13.6386 46.3614 0.375 30 0.375C13.6386 0.375 0.375 13.6386 0.375 30C0.375 46.3614 13.6386 59.625 30 59.625Z" fill="#69C2B6"/>
<g id="Group">
<path id="Vector_2" d="M60 29.8496V29.9996C60 46.5746 46.575 59.9996 30 59.9996C17.1 59.9996 6.075 51.8246 1.875 40.3496C8.625 44.9996 16.8 47.6996 25.65 47.6996C39.825 47.6996 52.425 40.6496 60 29.8496Z" fill="#1EA492"/>
</g>
<path id="Vector_3" d="M30 59.625C46.3614 59.625 59.625 46.3614 59.625 30C59.625 13.6386 46.3614 0.375 30 0.375C13.6386 0.375 0.375 13.6386 0.375 30C0.375 46.3614 13.6386 59.625 30 59.625Z" stroke="#002C15" stroke-miterlimit="10"/>
<path id="Vector_4" d="M34.2 19.8V18M38.925 21.075L40.2 19.8M40.2 25.8H42M41.925 31.2C41.325 37.275 36.225 42 30 42C23.4 42 18 36.6 18 30C18 23.775 22.725 18.675 28.8 18.075M30 25.2H34.8V30M34.35 25.2C31.5 29.175 26.85 31.8 21.6 31.8C20.4 31.8 19.2 31.65 18.075 31.425" stroke="#002C15" stroke-width="2" stroke-linecap="round" stroke-linejoin="round"/>
</g>
<defs>
<clipPath id="clip0_841_9746">
<rect width="60" height="60" fill="white"/>
</clipPath>
</defs>
</svg>
