<svg width="51" height="14" viewBox="0 0 51 14" fill="none" xmlns="http://www.w3.org/2000/svg">
<g id="4" clip-path="url(#clip0_841_9696)">
<g id="Clip path group">
<mask id="mask0_841_9696" style="mask-type:luminance" maskUnits="userSpaceOnUse" x="0" y="0" width="51" height="14">
<g id="clip0_9809_189429">
<path id="Vector" d="M50.2207 0.589844H0.992188V13.4104H50.2207V0.589844Z" fill="white"/>
</g>
</mask>
<g mask="url(#mask0_841_9696)">
<g id="Group">
<path id="Vector_2" d="M49.5879 9.06028C49.2923 8.47908 48.7503 8.08672 47.6169 7.6169C46.6905 7.23426 46.2223 6.97267 45.9365 6.66759C45.7049 6.42053 45.6359 6.21711 45.6606 5.84901C45.6803 5.50512 45.769 5.30169 45.9858 5.07405C46.2666 4.77859 46.651 4.67688 47.1142 4.77375C47.8731 4.92874 48.3561 5.447 48.775 6.53683C48.9227 6.92427 48.9425 6.9388 49.2085 6.84195L49.3761 6.77897L49.3712 6.33335C49.3663 6.08634 49.3564 5.56809 49.3416 5.18545L49.3219 4.47345L49.1938 4.42018C48.4989 4.12956 47.1783 3.95035 46.3209 4.02785C45.3452 4.11504 44.6257 4.42017 44.0739 4.98202C43.5269 5.53902 43.2756 6.19772 43.3199 6.97758C43.3544 7.62171 43.5515 8.08672 43.9555 8.48869C44.3301 8.86653 44.6454 9.04575 45.5472 9.3896C47.0009 9.94665 47.3902 10.2808 47.3853 10.9686C47.3853 11.5498 47.0699 11.976 46.4983 12.1746C46.2963 12.2473 45.7788 12.2473 45.5029 12.1746C44.7785 11.9858 44.2266 11.3706 43.7535 10.2276L43.6303 9.93693L43.4874 9.94174C43.4086 9.94665 43.3002 9.97085 43.2509 9.99505L43.1523 10.0387L43.1622 10.5375C43.1671 10.8136 43.1819 11.39 43.1918 11.8259L43.2115 12.6106L43.3741 12.6784C43.7042 12.8188 44.6997 13.0319 45.3206 13.0998C45.3994 13.1094 45.8232 13.1094 46.2666 13.1046C47.0354 13.0949 47.0896 13.0901 47.4789 12.9932C48.6221 12.6977 49.3613 12.0729 49.6866 11.1236C49.7851 10.833 49.7999 10.7409 49.8147 10.3099C49.8344 9.73837 49.7802 9.43805 49.5879 9.06028Z" fill="#00332C"/>
<path id="Vector_3" d="M40.7547 4.34793C39.7937 3.87327 38.3056 3.90717 37.2165 4.43027C36.1866 4.92432 35.4771 5.74771 35.0828 6.91017C34.8759 7.51562 34.8118 8.00477 34.8315 8.78944C34.8463 9.28346 34.866 9.54019 34.9202 9.77267C35.3243 11.5551 36.571 12.766 38.3055 13.076C38.6899 13.1438 39.5572 13.1438 39.9465 13.0808C40.4984 12.9839 41.1341 12.7466 41.5382 12.4753C42.026 12.1509 42.5336 11.6617 42.5336 11.5066C42.5336 11.4146 42.366 11.2015 42.2922 11.2015C42.2626 11.2015 42.1246 11.2693 41.9915 11.3565C41.5135 11.6617 41.0553 11.7876 40.4147 11.7876C39.5375 11.7876 38.9758 11.5696 38.4189 11.0175C38.1726 10.7704 38.069 10.6397 37.9409 10.3926C37.6601 9.85499 37.5073 9.23987 37.4827 8.54243L37.4728 8.24211L40.0648 8.23239L42.6567 8.22278L42.6666 8.04842C42.6716 7.95152 42.6617 7.70451 42.6371 7.49623C42.4745 5.94628 41.8387 4.88072 40.7547 4.34793ZM38.1429 7.48651L37.4876 7.49623V7.35579C37.4876 7.27828 37.5122 7.07486 37.5368 6.90531C37.7537 5.52006 38.281 4.68698 38.9412 4.68698C39.5474 4.68698 39.9219 5.50553 40.0008 7.00702L40.0204 7.43325L39.4094 7.45264C39.0743 7.46717 38.5027 7.4817 38.1429 7.48651Z" fill="#00332C"/>
<path id="Vector_4" d="M31.3627 4.18374C31.1558 4.14014 30.9685 4.1353 30.5694 4.14499C29.9632 4.16436 29.5493 4.25639 29.096 4.45982C28.9481 4.52763 28.8151 4.58575 28.8053 4.58575C28.7954 4.58575 28.7954 3.68485 28.8102 2.59022C28.8249 1.04029 28.82 0.589844 28.7855 0.589844C28.6722 0.589844 25.0947 1.25825 25.0552 1.28731C25.0256 1.31153 25.0158 1.38418 25.0207 1.49558C25.0306 1.68932 25.0109 1.67479 25.4445 1.77166C25.5776 1.80073 25.7303 1.85885 25.7846 1.89759C25.9324 1.99931 26.0506 2.22211 26.1344 2.53694C26.1984 2.78396 26.2083 2.96317 26.2379 4.65356C26.2674 6.37782 26.2625 8.14572 26.2132 11.3909L26.1935 12.7374L26.4498 12.7955C26.8193 12.8778 27.8837 13.0522 28.2287 13.0861C28.7363 13.1394 29.9288 13.1297 30.3032 13.0764C31.9492 12.8342 33.186 11.8947 33.7626 10.4609C33.9153 10.0783 34.0631 9.49219 34.1124 9.06116C34.1716 8.55261 34.1371 7.5306 34.0484 7.1189C33.7084 5.54476 32.7129 4.45982 31.3627 4.18374ZM28.8644 12.3112C28.82 12.1949 28.7658 8.16025 28.7855 6.54738L28.8003 5.28806L29.0319 5.22025C29.1847 5.17665 29.367 5.15244 29.5789 5.15244C29.8746 5.15244 29.914 5.16212 30.1653 5.28321C30.7665 5.57382 31.1804 6.30517 31.3726 7.4095C31.4416 7.81634 31.4515 8.9352 31.3874 9.42441C31.2297 10.6256 30.8305 11.5991 30.2984 12.069C30.0865 12.2579 29.8893 12.3547 29.6331 12.4032C29.4507 12.4371 29.3916 12.4371 29.0615 12.4129C28.9235 12.4032 28.8939 12.3887 28.8644 12.3112Z" fill="#00332C"/>
<path id="Vector_5" d="M24.6778 4.00098C24.2688 4.00098 24.052 4.04456 23.7218 4.19471C23.1206 4.46595 22.6722 4.90671 22.2681 5.62355L22.14 5.84633L22.1548 5.44919C22.1646 5.23123 22.1794 4.82437 22.1893 4.54345L22.2041 4.03488H22.1203C22.0119 4.03488 18.5378 4.71781 18.4343 4.7614C18.3654 4.79046 18.3555 4.81953 18.3555 4.98421C18.3555 5.15373 18.3654 5.1731 18.4343 5.18763C18.4787 5.19732 18.6363 5.22638 18.7891 5.25544C19.0947 5.31357 19.1883 5.362 19.3164 5.52668C19.548 5.8318 19.5973 6.36461 19.5973 8.6362C19.5973 10.4913 19.5579 11.4164 19.4642 11.707C19.3558 12.0606 19.1587 12.2446 18.8187 12.3028C18.7103 12.3221 18.5625 12.3512 18.4984 12.3657L18.3752 12.3899L18.3654 12.6273C18.3604 12.792 18.3703 12.8743 18.3999 12.8937C18.4245 12.9082 19.612 12.9179 21.0362 12.913L23.6282 12.9034L23.638 12.637C23.643 12.4917 23.638 12.3706 23.6183 12.3706C23.4163 12.3706 22.8003 12.2882 22.7018 12.2494C22.4111 12.1284 22.2681 11.8717 22.209 11.3486C22.1351 10.7335 22.0956 9.20292 22.1154 7.95329C22.135 6.68913 22.135 6.68427 22.2139 6.59709C22.4012 6.39848 22.8792 6.24357 23.3029 6.24357C23.643 6.24357 23.9978 6.33069 24.3723 6.50505C24.5546 6.59229 24.7172 6.65035 24.7419 6.64554C24.7911 6.62615 25.6387 4.41752 25.6387 4.3158C25.6436 4.15597 25.1607 4.00098 24.6778 4.00098Z" fill="#00332C"/>
<path id="Vector_6" d="M18.3578 7.84079C18.1754 6.31024 17.5151 5.19138 16.4261 4.56173C15.2187 3.86425 13.3807 3.82066 12.0749 4.46485C11.1336 4.92983 10.36 5.82587 10.02 6.85271C9.66521 7.91344 9.66521 9.30837 10.02 10.3933C10.2467 11.0859 10.5522 11.5945 11.0253 12.0546C11.592 12.6068 12.336 12.9604 13.1836 13.0814C13.4891 13.1251 14.4451 13.1251 14.7605 13.0814C14.9084 13.0621 15.1646 13.0039 15.3321 12.9604C16.8745 12.5196 17.9241 11.3572 18.2839 9.69101C18.3775 9.29384 18.412 8.3058 18.3578 7.84079ZM14.4599 12.4228C13.5039 12.7037 12.8189 11.8077 12.5529 9.92835C12.4691 9.3229 12.4691 7.66643 12.5529 6.97381C12.7402 5.46262 13.2131 4.69735 13.9622 4.6925C14.2973 4.6925 14.4845 4.77484 14.7506 5.03154C15.3765 5.65152 15.6771 6.83823 15.6721 8.70297C15.6672 10.1899 15.5194 11.1247 15.1794 11.7592C15.0118 12.0644 14.7063 12.3501 14.4599 12.4228Z" fill="#00332C"/>
<path id="Vector_7" d="M5.71022 1.76271H6.81402C8.08043 1.76271 8.28745 1.78693 8.73587 2.00489C9.38636 2.31972 9.8594 2.93969 10.2782 4.0198C10.4458 4.46056 10.4458 4.45571 10.8203 4.34431L11.0716 4.27166L11.047 2.68298C11.0322 1.81115 11.0125 1.03134 11.0027 0.953847L10.978 0.818228L6.14386 0.808541C3.48287 0.803697 1.25553 0.808541 1.19639 0.818228L1.07812 0.837602L1.08798 1.11853L1.09784 1.39945L1.46742 1.44305C1.94541 1.50117 2.23122 1.63194 2.39877 1.87411C2.77821 2.42143 2.8472 3.16734 2.8472 6.70309C2.8472 10.4714 2.76835 11.3868 2.39877 11.8614C2.20658 12.1085 2.05382 12.186 1.62511 12.2635C1.06334 12.3652 1.08305 12.3506 1.08305 12.6364C1.08305 12.7963 1.09784 12.8786 1.1274 12.8932C1.19147 12.9173 7.37576 12.9222 7.43984 12.8932C7.52364 12.8592 7.5187 12.4136 7.43495 12.37C7.40043 12.3506 7.19348 12.3119 6.97168 12.278C6.74995 12.2441 6.50359 12.1908 6.42967 12.1569C6.0256 11.9825 5.79892 11.503 5.71515 10.636C5.65601 10.0161 5.60673 8.86815 5.60673 8.02056V7.24561L5.98125 7.25522C6.78451 7.27948 7.19837 7.32307 7.36598 7.39572C7.7306 7.55555 8.02136 7.9915 8.17408 8.60661L8.25293 8.93599L8.53875 8.94566L8.82456 8.95533V4.82382L8.53875 4.83351L8.25293 4.84319L8.16918 5.16771C8.00658 5.8022 7.74538 6.18968 7.35609 6.3689C7.19837 6.44155 7.08505 6.46094 6.70565 6.48519C6.45429 6.49967 6.10446 6.5142 5.92211 6.5142H5.59688V5.48738C5.59688 4.46056 5.65109 2.28097 5.69051 1.94192L5.71022 1.76271Z" fill="#00332C"/>
</g>
</g>
</g>
</g>
<defs>
<clipPath id="clip0_841_9696">
<rect width="50" height="12.8205" fill="white" transform="translate(0.5 0.589844)"/>
</clipPath>
</defs>
</svg>
