<svg width="120" height="120" viewBox="0 0 120 120" fill="none" xmlns="http://www.w3.org/2000/svg">
<g clip-path="url(#clip0_248_11104)">
<path d="M60 120C93.1371 120 120 93.1371 120 60C120 26.8629 93.1371 0 60 0C26.8629 0 0 26.8629 0 60C0 93.1371 26.8629 120 60 120Z" fill="#002C15"/>
<path fill-rule="evenodd" clip-rule="evenodd" d="M42 94.4001H78V63.6001H42V94.4001Z" fill="#C3F53A" stroke="black" stroke-width="0.33" stroke-miterlimit="10"/>
<path fill-rule="evenodd" clip-rule="evenodd" d="M43.8984 54.5999H76.0984V50.8999H43.8984V54.5999Z" fill="#013101" stroke="black" stroke-width="0.33" stroke-linecap="round" stroke-linejoin="round"/>
<path fill-rule="evenodd" clip-rule="evenodd" d="M52 29.7001H67.9V28.3H52V29.7001Z" fill="#013101" stroke="black" stroke-width="0.33" stroke-linecap="round" stroke-linejoin="round"/>
<path fill-rule="evenodd" clip-rule="evenodd" d="M76.0984 50.9H43.8984L51.9984 39.7H67.8984L76.0984 50.9Z" fill="#C3F53A" stroke="black" stroke-width="0.33" stroke-miterlimit="10"/>
<path fill-rule="evenodd" clip-rule="evenodd" d="M59.3 9.2C59.3 8.8 59.6 8.5 60 8.5C60.4 8.5 60.7 8.8 60.7 9.2V12.9C61.8 13.2 62.6 14.2 62.6 15.4C62.6 16.5 61.9 17.4 61 17.8L67.9 28.4H52L59 17.7C58.1 17.3 57.4 16.4 57.4 15.3C57.4 14.1 58.2 13.1 59.3 12.8V9.2Z" fill="#C3F53A" stroke="black" stroke-width="0.33" stroke-miterlimit="10"/>
<path fill-rule="evenodd" clip-rule="evenodd" d="M53.6 29.7H66.4V23.8C66.4 23.4 66.8 23 67.2 23C67.6 23 68 23.3 68 23.8V29.7V38.4H52V29.7V23.8C52 23.4 52.4 23 52.8 23C53.2 23 53.6 23.3 53.6 23.8V29.7Z" fill="#04C604" stroke="black" stroke-width="0.33" stroke-miterlimit="10"/>
<path fill-rule="evenodd" clip-rule="evenodd" d="M46.2984 54.587H73.6984V45.587C73.6984 44.887 74.1984 44.387 74.8984 44.387C75.5984 44.387 76.0984 44.887 76.0984 45.587V54.587V63.687H43.8984V54.587V45.687V45.587C43.8984 44.887 44.3984 44.387 45.0984 44.387C45.7984 44.387 46.2984 44.887 46.2984 45.587V54.587Z" fill="#04C604" stroke="black" stroke-width="0.33" stroke-miterlimit="10"/>
<path fill-rule="evenodd" clip-rule="evenodd" d="M68.6992 39.6868H51.2992C50.8992 39.6868 50.6992 39.3868 50.6992 39.0868C50.6992 38.7868 50.9992 38.4868 51.2992 38.4868H68.6992C68.9992 38.4868 69.2992 38.7868 69.2992 39.0868C69.2992 39.3868 68.9992 39.6868 68.6992 39.6868Z" fill="#013101" stroke="black" stroke-width="0.33" stroke-linecap="round" stroke-linejoin="round"/>
<path fill-rule="evenodd" clip-rule="evenodd" d="M43.8984 147.587H76.0984V94.3868H43.8984V147.587Z" fill="#C3F53A" stroke="black" stroke-width="0.33" stroke-miterlimit="10"/>
<path fill-rule="evenodd" clip-rule="evenodd" d="M45.0977 92.4869H74.8977V65.7869H45.0977V92.4869Z" fill="#04C604" stroke="black" stroke-width="0.33" stroke-miterlimit="10"/>
<path fill-rule="evenodd" clip-rule="evenodd" d="M71.1969 78.987C71.1969 72.887 66.1969 67.887 59.9969 67.887C53.7969 67.887 48.7969 72.887 48.7969 78.987C48.7969 85.087 53.7969 90.087 59.9969 90.087C66.1969 90.087 71.1969 85.087 71.1969 78.987Z" fill="#039503"/>
<path fill-rule="evenodd" clip-rule="evenodd" d="M69 78.9869C69 74.0869 65 70.0869 60 70.0869C55 70.0869 51 74.0869 51 78.9869C51 83.8869 55 87.8869 60 87.8869C65 87.8869 69 83.8869 69 78.9869Z" fill="#C3F53A" stroke="black" stroke-width="0.33" stroke-miterlimit="10"/>
<path d="M60 71.9868V79.9868H67.2" stroke="black" stroke-linecap="round" stroke-linejoin="round"/>
<path fill-rule="evenodd" clip-rule="evenodd" d="M68.7969 58.1868C68.7969 57.4868 69.2969 56.9868 69.9969 56.9868C70.6969 56.9868 71.1969 57.4868 71.1969 58.1868V63.6868H68.7969V58.1868ZM64.7969 58.1868C64.7969 57.4868 65.2969 56.9868 65.9969 56.9868C66.6969 56.9868 67.1969 57.4868 67.1969 58.1868V63.6868H64.7969V58.1868ZM60.7969 58.1868C60.7969 57.4868 61.2969 56.9868 61.9969 56.9868C62.6969 56.9868 63.1969 57.4868 63.1969 58.1868V63.6868H60.7969V58.1868ZM56.7969 58.1868C56.7969 57.4868 57.2969 56.9868 57.9969 56.9868C58.6969 56.9868 59.1969 57.4868 59.1969 58.1868V63.6868H56.7969V58.1868ZM52.7969 58.1868C52.7969 57.4868 53.2969 56.9868 53.9969 56.9868C54.6969 56.9868 55.1969 57.4868 55.1969 58.1868V63.6868H52.7969V58.1868ZM48.7969 58.1868C48.7969 57.4868 49.2969 56.9868 49.9969 56.9868C50.6969 56.9868 51.1969 57.4868 51.1969 58.1868V63.6868H48.7969V58.1868Z" fill="#B5EEB5" stroke="black" stroke-width="0.33" stroke-linecap="round" stroke-linejoin="round"/>
<path fill-rule="evenodd" clip-rule="evenodd" d="M68.7969 98.9869C68.7969 98.2869 69.2969 97.7869 69.9969 97.7869C70.6969 97.7869 71.1969 98.2869 71.1969 98.9869V114.887H68.7969V98.9869ZM64.7969 98.9869C64.7969 98.2869 65.2969 97.7869 65.9969 97.7869C66.6969 97.7869 67.1969 98.2869 67.1969 98.9869V114.887H64.7969V98.9869ZM60.7969 98.9869C60.7969 98.2869 61.2969 97.7869 61.9969 97.7869C62.6969 97.7869 63.1969 98.2869 63.1969 98.9869V114.887H60.7969V98.9869ZM56.7969 98.9869C56.7969 98.2869 57.2969 97.7869 57.9969 97.7869C58.6969 97.7869 59.1969 98.2869 59.1969 98.9869V114.887H56.7969V98.9869ZM52.7969 98.9869C52.7969 98.2869 53.2969 97.7869 53.9969 97.7869C54.6969 97.7869 55.1969 98.2869 55.1969 98.9869V114.887H52.7969V98.9869ZM48.7969 98.9869C48.7969 98.2869 49.2969 97.7869 49.9969 97.7869C50.6969 97.7869 51.1969 98.2869 51.1969 98.9869V114.887H48.7969V98.9869Z" fill="#B5EEB5" stroke="black" stroke-width="0.33" stroke-linecap="round" stroke-linejoin="round"/>
<path fill-rule="evenodd" clip-rule="evenodd" d="M64.7969 32.9869C64.7969 32.2869 65.2969 31.7869 65.9969 31.7869C66.6969 31.7869 67.1969 32.2869 67.1969 32.9869V38.4869H64.7969V32.9869ZM60.7969 32.9869C60.7969 32.2869 61.2969 31.7869 61.9969 31.7869C62.6969 31.7869 63.1969 32.2869 63.1969 32.9869V38.4869H60.7969V32.9869ZM56.7969 32.9869C56.7969 32.2869 57.2969 31.7869 57.9969 31.7869C58.6969 31.7869 59.1969 32.2869 59.1969 32.9869V38.4869H56.7969V32.9869ZM52.7969 32.9869C52.7969 32.2869 53.2969 31.7869 53.9969 31.7869C54.6969 31.7869 55.1969 32.2869 55.1969 32.9869V38.4869H52.7969V32.9869Z" fill="#B5EEB5" stroke="black" stroke-width="0.33" stroke-linecap="round" stroke-linejoin="round"/>
</g>
<defs>
<clipPath id="clip0_248_11104">
<rect width="120" height="120" rx="60" fill="white"/>
</clipPath>
</defs>
</svg>
