<svg width="120" height="120" viewBox="0 0 120 120" fill="none" xmlns="http://www.w3.org/2000/svg">
<g clip-path="url(#clip0_248_11064)">
<mask id="mask0_248_11064" style="mask-type:luminance" maskUnits="userSpaceOnUse" x="0" y="0" width="120" height="120">
<path d="M60 0C93.1 0 120 26.9 120 60C120 93.1 93.1 120 60 120C26.9 120 0 93.1 0 60C0 26.9 26.9 0 60 0Z" fill="white"/>
</mask>
<g mask="url(#mask0_248_11064)">
<path d="M60 120C93.1371 120 120 93.1371 120 60C120 26.8629 93.1371 0 60 0C26.8629 0 0 26.8629 0 60C0 93.1371 26.8629 120 60 120Z" fill="#002C15"/>
<path fill-rule="evenodd" clip-rule="evenodd" d="M49.7992 12.4H69.8992V20.6H49.7992V39.2001H43.6992V11.5C43.6992 10.9 44.1992 10.3 44.8992 10.3H48.6992C49.2992 10.3 49.8992 10.8 49.8992 11.5V12.4H49.7992ZM76.0992 39.1H69.9992V11.5C69.9992 10.9 70.4992 10.3 71.1992 10.3H74.9992C75.5992 10.3 76.1992 10.8 76.1992 11.5V39.1H76.0992Z" fill="#C3F53A" stroke="black" stroke-width="0.33" stroke-miterlimit="10"/>
<path fill-rule="evenodd" clip-rule="evenodd" d="M48.4977 10.3001H45.0977V9.3001C45.0977 8.7001 45.5977 8.1001 46.2977 8.1001H47.2977C47.8977 8.1001 48.4977 8.6001 48.4977 9.3001V10.3001Z" fill="#04C604" stroke="black" stroke-width="0.33" stroke-miterlimit="10"/>
<path fill-rule="evenodd" clip-rule="evenodd" d="M50.5 40.9001H69.3V40.3001C69.3 39.7001 69.8 39.1001 70.5 39.1001H75.6C76.2 39.1001 76.8 39.6001 76.8 40.3001V67.9001H69.3V49.1001H50.5V67.9001H43V40.3001C43 39.7001 43.5 39.1001 44.2 39.1001H49.3C49.9 39.1001 50.5 39.6001 50.5 40.3001V40.9001Z" fill="#C3F53A" stroke="black" stroke-width="0.33" stroke-miterlimit="10"/>
<path fill-rule="evenodd" clip-rule="evenodd" d="M51.6 69.4999H68.1C68.2 68.5999 68.9 67.9999 69.8 67.9999H76.2C77.1 67.9999 77.9 68.6999 77.9 69.6999V126.2H68.2V85.2999C67.2 85.2999 66.3 84.4999 66.3 83.3999V82.6999H66.2C66 82.6999 65.8 82.4999 65.8 82.2999V77.5999H68.2H51.7H54.1V82.2999C54.1 82.4999 53.9 82.6999 53.7 82.6999H53.6V83.3999C53.6 84.3999 52.8 85.2999 51.7 85.2999V126H42V69.5999C42 68.6999 42.7 67.8999 43.7 67.8999H50C50.8 67.8999 51.6 68.5999 51.6 69.4999Z" fill="#C3F53A" stroke="black" stroke-width="0.33" stroke-miterlimit="10"/>
<path fill-rule="evenodd" clip-rule="evenodd" d="M74.6969 10.3001H71.2969V9.3001C71.2969 8.7001 71.7969 8.1001 72.4969 8.1001H73.4969C74.0969 8.1001 74.6969 8.6001 74.6969 9.3001V10.3001Z" fill="#04C604" stroke="black" stroke-width="0.33" stroke-miterlimit="10"/>
<path fill-rule="evenodd" clip-rule="evenodd" d="M52.3984 18.4H53.6984V14.5H52.3984V18.4Z" fill="#B5EEB5" stroke="black" stroke-width="0.33" stroke-linecap="round" stroke-linejoin="round"/>
<path fill-rule="evenodd" clip-rule="evenodd" d="M55.0977 18.4H56.3977V14.5H55.0977V18.4Z" fill="#B5EEB5" stroke="black" stroke-width="0.33" stroke-linecap="round" stroke-linejoin="round"/>
<path fill-rule="evenodd" clip-rule="evenodd" d="M57.7969 18.4H59.0969V14.5H57.7969V18.4Z" fill="#B5EEB5" stroke="black" stroke-width="0.33" stroke-linecap="round" stroke-linejoin="round"/>
<path fill-rule="evenodd" clip-rule="evenodd" d="M60.5 18.4H61.7V14.5H60.5V18.4Z" fill="#B5EEB5" stroke="black" stroke-width="0.33" stroke-linecap="round" stroke-linejoin="round"/>
<path fill-rule="evenodd" clip-rule="evenodd" d="M63.0977 18.4H64.3977V14.5H63.0977V18.4Z" fill="#B5EEB5" stroke="black" stroke-width="0.33" stroke-linecap="round" stroke-linejoin="round"/>
<path fill-rule="evenodd" clip-rule="evenodd" d="M65.7969 18.4H67.0969V14.5H65.7969V18.4Z" fill="#B5EEB5" stroke="black" stroke-width="0.33" stroke-linecap="round" stroke-linejoin="round"/>
<path fill-rule="evenodd" clip-rule="evenodd" d="M52.3984 47.0001H53.6984V43.1001H52.3984V47.0001Z" fill="#B5EEB5" stroke="black" stroke-width="0.33" stroke-linecap="round" stroke-linejoin="round"/>
<path fill-rule="evenodd" clip-rule="evenodd" d="M55.0977 47.0001H56.3977V43.1001H55.0977V47.0001Z" fill="#B5EEB5" stroke="black" stroke-width="0.33" stroke-linecap="round" stroke-linejoin="round"/>
<path fill-rule="evenodd" clip-rule="evenodd" d="M57.7969 47.0001H59.0969V43.1001H57.7969V47.0001Z" fill="#B5EEB5" stroke="black" stroke-width="0.33" stroke-linecap="round" stroke-linejoin="round"/>
<path fill-rule="evenodd" clip-rule="evenodd" d="M60.5 47.0001H61.7V43.1001H60.5V47.0001Z" fill="#B5EEB5" stroke="black" stroke-width="0.33" stroke-linecap="round" stroke-linejoin="round"/>
<path fill-rule="evenodd" clip-rule="evenodd" d="M63.0977 47.0001H64.3977V43.1001H63.0977V47.0001Z" fill="#B5EEB5" stroke="black" stroke-width="0.33" stroke-linecap="round" stroke-linejoin="round"/>
<path fill-rule="evenodd" clip-rule="evenodd" d="M65.7969 47.0001H67.0969V43.1001H65.7969V47.0001Z" fill="#B5EEB5" stroke="black" stroke-width="0.33" stroke-linecap="round" stroke-linejoin="round"/>
<path fill-rule="evenodd" clip-rule="evenodd" d="M52.3984 75.5001H53.6984V71.6001H52.3984V75.5001Z" fill="#B5EEB5" stroke="black" stroke-width="0.33" stroke-linecap="round" stroke-linejoin="round"/>
<path fill-rule="evenodd" clip-rule="evenodd" d="M55.0977 75.5001H56.3977V71.6001H55.0977V75.5001Z" fill="#B5EEB5" stroke="black" stroke-width="0.33" stroke-linecap="round" stroke-linejoin="round"/>
<path fill-rule="evenodd" clip-rule="evenodd" d="M57.7969 75.5001H59.0969V71.6001H57.7969V75.5001Z" fill="#B5EEB5" stroke="black" stroke-width="0.33" stroke-linecap="round" stroke-linejoin="round"/>
<path fill-rule="evenodd" clip-rule="evenodd" d="M60.5 75.5001H61.7V71.6001H60.5V75.5001Z" fill="#B5EEB5" stroke="black" stroke-width="0.33" stroke-linecap="round" stroke-linejoin="round"/>
<path fill-rule="evenodd" clip-rule="evenodd" d="M63.0977 75.5001H64.3977V71.6001H63.0977V75.5001Z" fill="#B5EEB5" stroke="black" stroke-width="0.33" stroke-linecap="round" stroke-linejoin="round"/>
<path fill-rule="evenodd" clip-rule="evenodd" d="M65.7969 75.5001H67.0969V71.6001H65.7969V75.5001Z" fill="#B5EEB5" stroke="black" stroke-width="0.33" stroke-linecap="round" stroke-linejoin="round"/>
<path d="M132.399 74.1999V72.0999C100.399 72.0999 74.2992 46.1 74.2992 14.2H72.1992C72.1992 27.3 76.4992 39.4 83.6992 49.2999V83C61.9992 67.8 47.7992 42.6 47.7992 14.3H45.6992C45.6992 43.9 60.6992 70.1 83.5992 85.6V103.9H84.5992V86.3C87.1992 88 89.7992 89.6 92.5992 91V104H93.5992V91.5C96.1992 92.8 98.8992 94 101.599 95V104H102.599V95.4C105.199 96.4 107.899 97.2 110.599 97.9V104H111.599V98.1C118.199 99.7 125.199 100.6 132.299 100.6V98.5C125.199 98.5 118.199 97.6 111.599 95.9V70.5999C118.099 72.8999 125.099 74.1999 132.399 74.1999ZM84.5992 83.7V50.7C86.9992 53.7999 89.6992 56.6 92.5992 59.2V88.6C89.8992 87.1 87.1992 85.5 84.5992 83.7ZM93.5992 89.1V60.0999C96.0992 62.1999 98.7992 64.1 101.599 65.8V92.7C98.8992 91.6 96.1992 90.4 93.5992 89.1ZM110.599 95.7C107.899 95 105.199 94.1 102.599 93.1V66.4C105.199 67.9 107.799 69.0999 110.599 70.1999V95.7Z" fill="#04C604" stroke="black" stroke-width="0.33" stroke-miterlimit="10"/>
<path d="M74.2984 14.3C74.2984 13.7 73.7984 13.3 73.2984 13.3C72.7984 13.3 72.2984 13.8 72.2984 14.3C72.2984 43 57.7984 68.4 35.7984 83.6V50.4001C43.3984 40.3001 47.9984 27.8 47.9984 14.3C47.9984 13.7 47.4984 13.3 46.9984 13.3C46.4984 13.3 45.9984 13.8 45.9984 14.3C45.9984 26.9 41.8984 38.6 34.9984 48.1H34.8984V48.2001C32.2984 51.7001 29.3984 54.9001 26.1984 57.7001H25.8984V58C23.1984 60.4001 20.1984 62.5001 17.0984 64.3001H16.8984V64.4001C8.39844 69.3001 -1.50156 72.2 -12.1016 72.2C-12.7016 72.2 -13.1016 72.7 -13.1016 73.2C-13.1016 73.7 -12.6016 74.2 -12.1016 74.2C-5.10156 74.2 1.59844 73.0001 7.89844 70.8001V96.1C1.49844 97.7 -5.20156 98.5 -12.1016 98.5C-12.7016 98.5 -13.1016 99 -13.1016 99.5C-13.1016 100 -12.6016 100.5 -12.1016 100.5C-5.20156 100.5 1.49844 99.7 7.89844 98.2V103.9H8.89844V98C11.5984 97.3 14.2984 96.5 16.8984 95.6V104H17.8984V95.3C20.5984 94.3 23.2984 93.1 25.8984 91.9V104H26.8984V91.3C29.6984 89.9 32.2984 88.4 34.8984 86.7V103.9H35.8984V86.1C58.8984 70.6 74.2984 44.2 74.2984 14.3ZM8.59844 95.9V70.4001C11.3984 69.4001 13.9984 68.1 16.5984 66.7V93.3C13.9984 94.3 11.3984 95.2001 8.59844 95.9ZM17.5984 93V66.2C20.3984 64.6 23.0984 62.7001 25.5984 60.7001V89.5C22.9984 90.8 20.3984 92 17.5984 93ZM26.5984 89V59.9001C29.4984 57.4001 32.1984 54.7001 34.5984 51.7001V84.3C32.0984 86 29.3984 87.5 26.5984 89Z" fill="#04C604" stroke="black" stroke-width="0.33" stroke-miterlimit="10"/>
<path fill-rule="evenodd" clip-rule="evenodd" d="M-12.4023 107.1H68.0977V103.8H-12.4023V107.1Z" fill="#013101" stroke="black" stroke-width="0.33" stroke-linecap="round" stroke-linejoin="round"/>
<path fill-rule="evenodd" clip-rule="evenodd" d="M77.8984 107.1H131.098V103.8H77.8984V107.1Z" fill="#013101" stroke="black" stroke-width="0.33" stroke-linecap="round" stroke-linejoin="round"/>
<path fill-rule="evenodd" clip-rule="evenodd" d="M-12.4023 113.9H68.0977V107.1H-12.4023V113.9Z" fill="#04C604" stroke="black" stroke-width="0.33" stroke-miterlimit="10"/>
<path fill-rule="evenodd" clip-rule="evenodd" d="M77.8984 113.9H131.098V107.1H77.8984V113.9Z" fill="#04C604" stroke="black" stroke-width="0.33" stroke-miterlimit="10"/>
</g>
</g>
<defs>
<clipPath id="clip0_248_11064">
<rect width="120" height="120" fill="white"/>
</clipPath>
</defs>
</svg>
