<svg width="121" height="26" viewBox="0 0 121 26" fill="none" xmlns="http://www.w3.org/2000/svg">
<path id="TechCabal logo" fill-rule="evenodd" clip-rule="evenodd" d="M0.5 13V26L11 25.9982L21.5 25.9962L24.4483 23.1624L27.3966 20.3286V10.1644V0H13.9483H0.5V13ZM62.3621 11.5V18H64.1021H65.8423L65.9124 14.9206C65.9739 12.2312 66.0326 11.788 66.3769 11.4206C66.8807 10.883 67.8587 10.8644 68.1479 11.3868C68.2692 11.606 68.3621 13.1234 68.3621 14.8868V18H70.2405H72.1191L72.0508 14.35C71.9937 11.2846 71.9213 10.5804 71.5988 9.9532C70.8614 8.5194 68.9093 7.8672 67.2206 8.4906C66.7102 8.6792 66.176 8.9942 66.0334 9.1906C65.8214 9.4834 65.7881 9.137 65.8493 7.274L65.924 5H64.143H62.3621V11.5ZM94.6379 11.5V18H95.9871C97.2097 18 97.3576 17.955 97.5622 17.5212L97.7877 17.0424L98.5096 17.516C100.671 18.9338 103.064 17.9254 103.866 15.259C104.312 13.7752 104.17 11.4036 103.566 10.2588C103.022 9.2286 102.068 8.4524 101.14 8.284C100.292 8.1302 98.7109 8.6366 98.3093 9.1906C98.0972 9.4834 98.0639 9.137 98.1252 7.274L98.1999 5H96.4189H94.6379V11.5ZM116.776 11.5V18H118.638H120.5V11.5V5H118.638H116.776V11.5ZM35.0703 7.6026C34.7817 8.251 34.3719 8.763 33.9095 9.0526C33.3051 9.431 33.1944 9.6156 33.1921 10.25C33.1901 10.9074 33.2505 11 33.6825 11C34.1712 11 34.1759 11.021 34.2635 13.55C34.3599 16.339 34.6083 17.1102 35.6163 17.7482C36.2633 18.1576 38.9122 18.2122 39.8621 17.8356C40.3932 17.625 40.431 17.5304 40.431 16.416V15.222L39.2414 15.261L38.0517 15.3L37.993 13.15L37.9342 11H39.0792H40.2241V9.7V8.4H39.0862H37.9483V7.5V6.6H36.7323H35.5164L35.0703 7.6026ZM4.64021 11.25C4.64145 13.5876 4.69793 15.8236 4.76559 16.2192C4.8531 16.7312 5.25697 17.3216 6.16752 18.2692L7.44614 19.6H10.4904H13.5345V15.9V12.2H11.6724H9.81034V14.4V16.6H9.08621H8.36207V13.6V10.6H10.9483H13.5345V9.6V8.6H11.2756C10.0332 8.6 8.86938 8.5454 8.68938 8.4786C8.47979 8.401 8.36207 8.113 8.36207 7.6786V7H6.5H4.63793L4.64021 11.25ZM15.9599 8.355L14.569 9.71V14.655V19.6L17.5172 19.5964L20.4655 19.5926L21.8621 18.3318L23.2586 17.071V15.0356V13H21.5075H19.7563L19.6971 14.95L19.6379 16.9L18.8621 16.962L18.0862 17.0242V13.5V9.9758L18.8621 10.038C19.6315 10.0994 19.6381 10.1074 19.6532 11L19.6686 11.9L21.4636 11.9578L23.2586 12.0156V9.5078V7H20.3048H17.3509L15.9599 8.355ZM44.8162 8.4354C42.0384 9.0358 40.6328 12.8644 42.1249 15.7666C43.0847 17.6336 45.4758 18.5084 48.327 18.0358C50.4777 17.6792 50.569 17.6042 50.569 16.193C50.569 15.5368 50.499 15.0014 50.4138 15.003C50.3286 15.0046 49.8862 15.1358 49.431 15.2942C48.1561 15.7382 46.3936 15.6864 45.7348 15.1854C44.6343 14.3486 44.9447 14.2156 48.1379 14.1554L51.0862 14.1L51.151 13.3422C51.1866 12.9252 51.1077 12.0818 50.9757 11.4676C50.6472 9.9374 49.4389 8.742 47.8979 8.4226C46.6576 8.1654 46.0535 8.168 44.8162 8.4354ZM55.917 8.4776C53.5634 9.0904 52.4263 10.6916 52.4356 13.3798C52.4426 15.4528 53.2237 16.8602 54.8103 17.6594C55.9381 18.2276 58.3903 18.2582 59.6267 17.7196L60.5 17.3392V15.9888V14.6384L59.4632 15.0192C58.3183 15.4398 57.3647 15.5046 56.7788 15.2016C55.8674 14.73 55.7383 12.203 56.5839 11.3856C57.0469 10.938 57.981 10.898 59.0832 11.2784L59.8386 11.5394L60.3779 10.3312C60.6744 9.6668 60.8466 9.0552 60.7603 8.972C60.5161 8.7364 58.2092 8.1984 57.5083 8.2134C57.1623 8.221 56.4463 8.3398 55.917 8.4776ZM77.4072 8.4184C76.2655 8.6782 75.5406 9.0886 74.8179 9.8844C74.0445 10.7356 73.7441 11.6958 73.7426 13.3202C73.7406 15.4216 74.515 16.8522 76.081 17.64C77.2493 18.2278 79.6789 18.2676 80.937 17.7196L81.8103 17.3392V15.9696C81.8103 15.2164 81.7781 14.6 81.7388 14.6C81.6992 14.6 81.3798 14.7386 81.0287 14.9078C80.6778 15.077 79.9301 15.2682 79.3675 15.3328C78.5101 15.4308 78.2753 15.3828 77.9165 15.036C77.0939 14.2408 77.0795 12.1732 77.8909 11.3888C78.368 10.9276 79.1706 10.8936 80.3201 11.2856L81.1578 11.5714L81.6734 10.3356C81.957 9.656 82.1271 9.0372 82.0514 8.9604C81.8261 8.7316 79.4975 8.1984 78.8186 8.22C78.4727 8.2312 77.8375 8.3204 77.4072 8.4184ZM86.7759 8.3264C85.5415 8.5534 84.0862 9.0262 84.0862 9.2002C84.0862 9.3484 84.83 11.0158 85.0563 11.375C85.0822 11.4164 85.4817 11.3038 85.9439 11.125C87.3668 10.5746 88.8448 10.7256 88.8448 11.4214C88.8448 11.7178 88.6938 11.8 88.1488 11.8C87.0659 11.8 85.3092 12.17 84.5255 12.5632C82.7453 13.4562 82.5471 16.3154 84.1791 17.5562C85.3259 18.4282 87.5749 18.3022 88.8111 17.2966L89.4169 16.804L89.677 17.4108C89.931 18.0036 89.9662 18.0162 91.2014 17.9588L92.4655 17.9L92.5299 15.4C92.6486 10.7846 92.2863 9.5078 90.6353 8.7256C89.8541 8.3556 87.7824 8.1412 86.7759 8.3264ZM109.017 8.3282C107.979 8.481 106.431 9.02 106.431 9.229C106.431 9.4368 107.272 11.4 107.361 11.4C107.39 11.4 107.809 11.265 108.293 11.1C109.352 10.739 110.601 10.7106 110.941 11.04C111.478 11.5588 111.178 11.7458 109.586 11.8852C106.627 12.1444 105.398 13.0876 105.398 15.1C105.398 16.216 105.887 17.177 106.724 17.7072C107.889 18.445 110.011 18.2462 111.066 17.3002C111.374 17.025 111.655 16.8 111.692 16.8C111.73 16.8 111.876 17.07 112.017 17.4C112.262 17.9714 112.333 18 113.503 18H114.732L114.667 14.15C114.607 10.5406 114.575 10.261 114.142 9.6746C113.888 9.3308 113.337 8.8916 112.917 8.6988C112.148 8.3464 110.171 8.1582 109.017 8.3282ZM46.0172 10.7346C45.621 10.8768 45.1897 11.3998 45.1897 11.7382C45.1897 11.927 45.5643 12 46.5345 12C47.9399 12 48.158 11.8292 47.6207 11.1492C47.331 10.7826 46.4896 10.5652 46.0172 10.7346ZM98.4773 11.4446C97.9743 12.1386 98.0348 14.4836 98.569 15C99.1245 15.537 99.7301 15.5044 100.129 14.916C100.598 14.224 100.58 11.8904 100.102 11.3796C99.6243 10.8698 98.8719 10.9 98.4773 11.4446ZM87.231 14.0486C86.8613 14.2206 86.7688 14.4074 86.8172 14.885C86.8677 15.386 86.9828 15.5116 87.4381 15.5624C88.3468 15.6638 88.8448 15.2852 88.8448 14.493C88.8448 13.867 88.7898 13.8014 88.2759 13.8136C87.963 13.821 87.4928 13.9268 87.231 14.0486ZM109.604 13.9998C108.609 14.3876 108.784 15.6 109.835 15.6C110.634 15.6 111.19 15.0812 111.19 14.3342C111.19 13.8816 111.103 13.802 110.621 13.8126C110.308 13.8196 109.85 13.9038 109.604 13.9998Z" fill="#00332C"/>
</svg>
