<svg width="101" height="20" viewBox="0 0 101 20" fill="none" xmlns="http://www.w3.org/2000/svg">
<g id="3" clip-path="url(#clip0_841_9680)">
<g id="Page-1_1_">
<g id="tc_1_">
<path id="Fill-1_1_" d="M19.1875 6.66667H28.5391V0H19.1875V6.66667Z" fill="#00332C"/>
<path id="Fill-2_1_" d="M0.5 0V6.66667H5.16744V20H9.83489V6.66667H14.519V0H0.5Z" fill="#00332C"/>
<path id="Fill-3_1_" d="M14.5195 20.0003H28.5385V13.3337H19.187V6.66699H14.5195V20.0003Z" fill="#00332C"/>
<path id="Fill-4_1_" d="M40.4577 5.03516H33.5898V7.80905H35.8902V16.5037H38.1573V7.80905H40.4577V5.03516Z" fill="#00332C"/>
<path id="Fill-5_1_" d="M43.0398 7.71582C41.4229 7.71582 40.2227 9.23097 40.2227 12.2147C40.2227 14.8487 41.2395 16.6902 43.0898 16.6902C44.0566 16.6902 44.8401 16.3405 45.5902 15.7112L44.7901 13.823C44.1733 14.2659 43.7399 14.4291 43.1898 14.4291C42.6231 14.4291 42.223 14.0095 42.1396 13.0538H45.7569C45.7736 12.914 45.7736 12.7275 45.7736 12.4711C45.7903 9.27759 44.7401 7.71582 43.0398 7.71582ZM42.173 11.2123C42.2397 10.3499 42.5064 9.90696 42.9898 9.90696C43.6066 9.90696 43.8233 10.3499 43.9233 11.2123H42.173Z" fill="#00332C"/>
<path id="Fill-6_1_" d="M49.7903 14.2892C49.2236 14.2892 48.9235 13.5899 48.9235 12.2147C48.9235 10.8627 49.1902 10.0934 49.7403 10.0934C50.1904 10.0934 50.3904 10.4431 50.6905 11.2123L52.1407 9.67386C51.6073 8.46174 50.9405 7.71582 49.7737 7.71582C47.8067 7.71582 46.8398 9.534 46.8398 12.168C46.8398 15.0585 47.9234 16.6669 49.7237 16.6669C50.8072 16.6669 51.474 16.0841 52.1907 14.6156L50.8572 13.1471C50.4571 13.9862 50.1904 14.2892 49.7903 14.2892Z" fill="#00332C"/>
<path id="Fill-7_1_" d="M57.0579 7.71521C56.3244 7.71521 55.891 8.06486 55.5076 8.46113V4.56836L53.3906 5.75717V16.5264H55.5076V11.608C55.5076 10.5357 55.7744 10.2327 56.2244 10.2327C56.6578 10.2327 56.9245 10.5357 56.9245 11.6313V16.5264H59.0416V11.2583C59.0416 8.99726 58.3915 7.71521 57.0579 7.71521Z" fill="#00332C"/>
<path id="Fill-8_1_" d="M64.1267 13.9162C63.1432 13.9162 62.7431 12.5176 62.7431 10.7694C62.7431 8.9512 63.1598 7.62253 64.11 7.62253C64.8601 7.62253 65.1435 8.29852 65.4269 9.37078L67.4939 8.22859C66.9271 6.06075 66.127 4.84863 64.11 4.84863C61.9096 4.84863 60.3594 7.0864 60.3594 10.7694C60.3594 14.1726 61.6596 16.6901 64.0933 16.6901C66.0437 16.6901 66.9605 15.2216 67.5106 13.7298L65.5936 12.3078C65.1435 13.3801 64.8435 13.9162 64.1267 13.9162Z" fill="#00332C"/>
<path id="Fill-9_1_" d="M70.91 8.53167V7.9023H68.793V16.5037H70.91V11.8184C70.91 10.7694 71.2267 10.4198 71.7435 10.4198C72.1602 10.4198 72.4602 10.7228 72.727 11.1424L73.227 8.08878C72.977 7.87899 72.6769 7.71582 72.2269 7.71582C71.6768 7.71582 71.26 8.04216 70.91 8.53167Z" fill="#00332C"/>
<path id="Fill-10_1_" d="M77.7477 12.8208C77.7477 13.893 77.481 14.1961 77.0476 14.1961C76.6142 14.1961 76.3475 13.893 76.3475 12.7974V7.90234H74.2305V13.1704C74.2305 15.4315 74.8806 16.6902 76.2308 16.6902C76.9476 16.6902 77.3977 16.3406 77.7644 15.9443V16.5271H79.8814V7.92565H77.7644L77.7477 12.8208Z" fill="#00332C"/>
<path id="Fill-11_1_" d="M85.0657 7.71582C84.3323 7.71582 83.8989 8.06547 83.5155 8.46174V7.87899H81.3984V16.4804H83.5155V11.562C83.5155 10.4897 83.7822 10.1867 84.2322 10.1867C84.6656 10.1867 84.9324 10.4897 84.9324 11.5853V16.4804H87.0494V11.2123C87.0494 8.99787 86.4159 7.71582 85.0657 7.71582Z" fill="#00332C"/>
<path id="Fill-12_1_" d="M91.2484 14.2892C90.6817 14.2892 90.3816 13.5899 90.3816 12.2147C90.3816 10.8627 90.6483 10.0934 91.1817 10.0934C91.6318 10.0934 91.8318 10.4431 92.1319 11.2123L93.5821 9.67386C93.0487 8.46174 92.3819 7.71582 91.2151 7.71582C89.2481 7.71582 88.2812 9.534 88.2812 12.168C88.2812 15.0585 89.3648 16.6669 91.1651 16.6669C92.2486 16.6669 92.9154 16.0841 93.6321 14.6156L92.2986 13.1471C91.9319 13.9862 91.6485 14.2892 91.2484 14.2892Z" fill="#00332C"/>
<path id="Fill-13_1_" d="M98.5149 7.71521C97.7815 7.71521 97.3481 8.06486 96.9647 8.46113V4.56836L94.8477 5.75717V16.5264H96.9647V11.608C96.9647 10.5357 97.2314 10.2327 97.6815 10.2327C98.1149 10.2327 98.3816 10.5357 98.3816 11.6313V16.5264H100.499V11.2583C100.515 8.99726 99.8652 7.71521 98.5149 7.71521Z" fill="#00332C"/>
</g>
</g>
</g>
<defs>
<clipPath id="clip0_841_9680">
<rect width="100" height="20" fill="white" transform="translate(0.5)"/>
</clipPath>
</defs>
</svg>
