<svg width="101" height="20" viewBox="0 0 101 20" fill="none" xmlns="http://www.w3.org/2000/svg">
<path id="Techpoint" fill-rule="evenodd" clip-rule="evenodd" d="M6.40147 0.0926483C6.35655 0.166568 6.22429 0.508633 6.10716 0.8527C5.99004 1.19693 5.82713 1.47843 5.74523 1.47843C5.66333 1.47843 5.36075 1.29071 5.07296 1.06128C4.48771 0.594733 3.98417 0.516475 3.98417 0.892079C3.98417 1.0284 4.08333 1.49228 4.20432 1.92311C4.37094 2.51614 4.56361 2.78412 4.99706 3.02673C5.60433 3.36646 5.58372 3.31824 6.50714 6.57787L6.93547 8.08996L6.34916 8.61841C5.34701 9.5218 5.32007 10.9253 6.28364 12.0327C7.87316 13.8597 11.0291 12.7022 11.0291 10.2922C11.0291 9.1829 9.68987 7.81915 8.60055 7.81915C8.32632 7.81915 8.16006 7.42719 7.60369 5.47125C6.94745 3.16339 6.94111 3.11267 7.23295 2.49945C7.49766 1.9433 7.50365 1.77744 7.28719 0.968168C7.13449 0.397503 6.94023 0.0417556 6.76358 0.00938455C6.60912 -0.018815 6.4462 0.0187289 6.40147 0.0926483ZM15.9606 2.72989V3.81448H18.3383H20.7159V9.98834V16.1622H22.0369H23.3578V9.98834V3.81448H25.8235H28.2892V2.72989V1.64529H22.1249H15.9606V2.72989ZM47.4867 8.90374V16.1622H48.8077H50.1286V12.6828C50.1286 9.34676 50.145 9.18007 50.5272 8.63643C51.4501 7.32357 53.2555 7.1527 53.8709 8.31973C54.1358 8.82198 54.1789 9.412 54.1791 12.533L54.1794 16.1622H55.5087H56.838L56.7855 11.8528L56.7332 7.54349L56.2376 6.83433C55.0985 5.2046 52.2493 4.82332 50.6624 6.0883L50.1286 6.51396V4.07963V1.64529H48.8077H47.4867V8.90374ZM79.8935 2.88974V4.1482H81.3103H82.727L82.6752 2.93846L82.6234 1.72872L81.2585 1.68L79.8935 1.63127V2.88974ZM95.5685 4.06477V5.48309H94.776H93.9834V6.56769V7.65229H94.776H95.5685V10.8707C95.5685 13.8769 95.5946 14.1382 95.9648 14.8323C96.1827 15.2411 96.6385 15.7527 96.9775 15.9691C97.5166 16.3135 97.7377 16.3519 98.7388 16.2747C100.468 16.1412 100.5 16.1178 100.5 14.9842V14.0087L99.6021 14.1095C98.9339 14.1844 98.6644 14.1505 98.5482 13.9765C98.4622 13.8478 98.3907 12.3723 98.3892 10.6975L98.3865 7.65229H99.3552H100.324V6.56769V5.48309H99.3552H98.3865V4.06477V2.64646H96.9775H95.5685V4.06477ZM7.29212 3.07212C7.23876 3.12268 7.40185 3.90742 7.65476 4.81582L8.11427 6.46757L8.82317 6.57937C10.8895 6.90508 12.262 8.39882 12.262 10.3221C12.262 13.5356 8.31558 15.2877 5.75492 13.2111C3.79695 11.6234 3.76296 9.08362 5.67813 7.4906L6.33612 6.94329L5.91043 5.35828C5.67636 4.48643 5.38506 3.73706 5.26335 3.69284C4.93083 3.57187 3.42251 4.55301 2.49205 5.49527C-0.321178 8.34476 -0.132726 12.7993 2.91791 15.556C5.94742 18.2937 10.4712 18.3269 13.5808 15.6344C14.7295 14.6398 15.7056 12.9076 15.9631 11.4067C16.6098 7.6376 13.8836 3.97367 9.83165 3.16623C8.84395 2.96933 7.45486 2.91794 7.29212 3.07212ZM30.0505 5.4624C27.7533 6.17857 26.416 7.84468 26.2258 10.2276C26.0743 12.1245 26.6006 13.568 27.9032 14.8281C29.4134 16.2892 31.1581 16.681 33.096 15.994C34.3808 15.5385 35.3951 14.6731 35.9527 13.5563C36.5704 12.3192 36.4795 12.1575 35.1658 12.1575C34.1329 12.1575 34.095 12.1736 33.686 12.7833C33.0587 13.7187 32.6143 14.0235 31.7425 14.1166C30.7104 14.2268 29.8582 13.744 29.3585 12.7661C28.6755 11.4292 28.512 11.4901 32.7804 11.4901H36.5671L36.5894 11.1147C36.6018 10.9082 36.6752 11.1998 36.7525 11.7626C36.9313 13.0609 37.7642 14.6369 38.6298 15.3152C40.3884 16.6933 43.2459 16.6166 44.9298 15.146C45.6787 14.4921 46.285 13.4122 46.4908 12.3661L46.5973 11.8238H45.1998H43.8022L43.5851 12.5106C43.4657 12.8884 43.1393 13.414 42.86 13.6786C41.4001 15.0617 39.3826 13.3129 39.3861 10.6671C39.3875 9.51178 39.6912 8.70835 40.3689 8.06627C41.4388 7.05259 42.8913 7.3244 43.5257 8.65712L43.8417 9.3209H45.2096H46.5778L46.3999 8.69517C45.6602 6.09147 43.0083 4.76075 40.1579 5.56269C38.4026 6.05659 37.0428 7.68583 36.7707 9.62125L36.637 10.5724L36.5012 9.73805C36.2117 7.95914 35.1794 6.50996 33.6846 5.78394C32.8949 5.4005 30.8341 5.21812 30.0505 5.4624ZM62.4573 5.50328C62.2151 5.59439 61.7989 5.86654 61.5326 6.10782L61.0483 6.54666V6.01488V5.48309H59.7273H58.4064V12.7415V20H59.7273H61.0483V17.4797V14.9596L61.6496 15.4599C63.7317 17.1917 66.7809 16.1463 67.8229 13.3432C68.6892 11.0127 68.1108 7.83533 66.5685 6.45239C65.4986 5.49294 63.6299 5.06143 62.4573 5.50328ZM72.2994 5.54667C70.0121 6.32107 68.7611 8.18624 68.7611 10.8226C68.7611 13.4774 70.119 15.444 72.394 16.0841C74.9316 16.7979 77.4142 15.8008 78.6216 13.5825C79.2903 12.3541 79.3877 9.99268 78.8285 8.57002C78.2839 7.18457 76.981 5.94964 75.6785 5.58454C74.5383 5.26467 73.177 5.24949 72.2994 5.54667ZM88.3795 5.56969C88.0581 5.70201 87.5628 5.96699 87.2787 6.15855L86.7623 6.50695V5.99502V5.48309H85.4414H84.1205V10.8226V16.1622H85.4414H86.7623V12.8085C86.7623 10.0599 86.8139 9.35176 87.0482 8.88389C87.4092 8.16338 88.1728 7.64277 89.0284 7.53398C89.5629 7.46607 89.7938 7.53181 90.2089 7.86987L90.7251 8.29036L90.7781 12.2263L90.8313 16.1622H92.1431H93.455L93.4417 12.0324C93.4276 7.6935 93.3562 7.21077 92.6081 6.39949C91.7135 5.42936 89.6871 5.03173 88.3795 5.56969ZM79.8935 10.8226V16.1762L81.2585 16.1275L82.6234 16.0788V10.8226V5.56652L81.2585 5.5178L79.8935 5.46908V10.8226ZM30.5789 7.60323C30.0146 7.79879 28.9937 8.9533 28.9937 9.39598C28.9937 9.44654 30.069 9.48776 31.3832 9.48776H33.7729L33.6475 9.11232C33.2406 7.89357 31.7943 7.18224 30.5789 7.60323ZM62.318 7.74673C61.3644 8.37947 60.8693 10.287 61.2307 11.9358C61.3966 12.6935 61.5921 13.0457 62.1283 13.5537C62.7398 14.133 62.8821 14.1924 63.4497 14.1051C64.7652 13.9029 65.4415 12.7756 65.4475 10.7756C65.4517 9.34659 65.1921 8.55968 64.5003 7.90425C63.9795 7.41067 62.9376 7.33558 62.318 7.74673ZM72.8401 7.86136C71.8373 8.50161 71.5276 9.20026 71.5276 10.8226C71.5276 12.445 71.8373 13.1437 72.8401 13.7839C73.589 14.262 74.3988 14.2622 75.1408 13.7844C76.0584 13.1936 76.4591 12.2935 76.4591 10.8226C76.4591 9.35177 76.0584 8.45172 75.1408 7.86086C74.3988 7.38314 73.589 7.38331 72.8401 7.86136Z" fill="#00332C"/>
</svg>
