<svg width="101" height="18" viewBox="0 0 101 18" fill="none" xmlns="http://www.w3.org/2000/svg">
<g id="5" clip-path="url(#clip0_841_9707)">
<path id="Vector" d="M8.88926 7.25385H6.47315V12.5553C6.47315 13.4604 7.01007 13.6544 7.88255 13.6544C8.21812 13.6544 8.55369 13.5897 8.88926 13.5897V16.3698C8.15101 16.3698 7.41275 16.4991 6.74161 16.4991C3.38591 16.4991 2.51342 15.5293 2.51342 12.3614V7.25385H0.5V4.73242H2.51342V1.24121H6.47315V4.73242H8.88926V7.25385ZM12.3792 11.5209C12.4463 13.1372 13.3859 14.1716 15.0638 14.1716C16.0034 14.1716 16.943 13.719 17.3456 12.8786H21.0369C20.3658 15.594 17.7483 16.7577 15.0638 16.7577C11.104 16.7577 8.41946 14.4949 8.41946 10.5511C8.41946 6.99524 11.3725 4.40916 14.9295 4.40916C19.2919 4.40916 21.4396 7.57711 21.2383 11.5209H12.3792ZM17.2785 9.38736C17.2114 8.09432 16.2718 6.99524 14.9295 6.99524C13.5201 6.99524 12.5805 7.96502 12.3792 9.38736H17.2785ZM29.9631 8.99945C29.9631 8.02967 29.0235 7.3185 28.0168 7.3185C25.802 7.3185 25.4664 9.12875 25.4664 10.7451C25.4664 12.232 26.1376 13.7837 27.8154 13.7837C29.2248 13.7837 29.896 13.0079 30.0973 11.7795H33.9228C33.5872 14.9474 31.104 16.7577 27.8826 16.7577C24.2584 16.7577 21.5067 14.3656 21.5067 10.8097C21.5067 7.12454 23.9228 4.47381 27.8826 4.47381C30.9027 4.47381 33.5872 6.02546 33.8557 9.0641H29.9631V8.99945ZM34.057 1.24121H38.0168V6.34872H38.0839C38.6879 5.18498 40.2987 4.40916 41.7752 4.40916C45.802 4.40916 46.1376 7.25385 46.1376 8.9348V16.4344H42.1779V10.8097C42.1779 9.19341 42.3792 7.57711 40.1644 7.57711C38.6879 7.57711 38.0168 8.80549 38.0168 10.0985V16.4344H34.057V1.24121ZM46.4732 4.73242H50.2987V6.80128H50.3658C50.9698 5.31429 52.3121 4.53846 53.9899 4.53846C54.3255 4.53846 54.594 4.53846 54.9295 4.60311V8.09432C54.3926 7.96502 53.9228 7.90037 53.3859 7.90037C51.4396 7.90037 50.4329 9.19341 50.4329 10.6804V16.4344H46.4732V4.73242ZM54.9295 8.35293C54.9966 6.80128 55.7349 5.8315 56.8087 5.24963C57.8826 4.66777 59.2919 4.40916 60.6342 4.40916C63.5201 4.40916 66.2718 4.99103 66.2718 8.28828V13.3958C66.2718 14.3656 66.2718 15.4647 66.7416 16.3698H62.7819C62.6477 15.9819 62.5805 15.6586 62.5805 15.2707C61.5067 16.3698 60.0302 16.7577 58.5537 16.7577C56.2718 16.7577 54.3926 15.6586 54.3926 13.2018C54.3926 9.38736 58.6879 9.71062 61.4396 9.12875C62.1107 8.99945 62.5134 8.74084 62.5134 8.02967C62.5134 7.12454 61.4396 6.80128 60.5671 6.80128C59.4933 6.80128 58.755 7.25385 58.5537 8.28828H54.9295V8.35293ZM60.0302 14.4302C61.9094 14.4302 62.5805 13.3958 62.4463 11.0037C61.9094 11.3269 60.8356 11.3916 60.0302 11.6502C59.1577 11.8441 58.4195 12.232 58.4195 13.1372C58.4195 14.0423 59.1577 14.4302 60.0302 14.4302ZM79.0906 16.4344H75.3322V15.0767H75.2651C74.9109 15.6035 74.4229 16.0344 73.8474 16.3286C73.2719 16.6227 72.6279 16.7705 71.9765 16.7577C68.151 16.7577 66.5403 13.5897 66.5403 10.3571C66.5403 7.3185 68.2181 4.47381 71.6409 4.47381C73.1175 4.47381 74.2584 4.99103 75.0638 6.09011H75.1309V1.24121H79.0906V16.4344ZM70.5 10.4864C70.5 12.1027 71.104 13.8484 72.9161 13.8484C74.8624 13.8484 75.2651 12.1027 75.2651 10.6158C75.2651 8.9348 74.6611 7.38315 72.9161 7.38315C71.104 7.3185 70.5 8.99945 70.5 10.4864ZM79.6946 8.35293C79.7617 6.80128 80.5 5.8315 81.5738 5.24963C82.6477 4.66777 84.0571 4.40916 85.3993 4.40916C88.2852 4.40916 91.0369 4.99103 91.0369 8.28828V13.3958C91.0369 14.3656 91.0369 15.4647 91.5067 16.3698H87.547C87.4128 15.9819 87.3456 15.6586 87.3456 15.2707C86.2718 16.3698 84.7282 16.7577 83.3188 16.7577C81.0369 16.7577 79.1577 15.6586 79.1577 13.2018C79.1577 9.38736 83.453 9.71062 86.2047 9.12875C86.8758 8.99945 87.2785 8.74084 87.2785 8.02967C87.2785 7.12454 86.2047 6.80128 85.3322 6.80128C84.2584 6.80128 83.5201 7.25385 83.3188 8.28828H79.6946V8.35293ZM84.7953 14.4302C86.6745 14.4302 87.3456 13.3958 87.2114 11.0037C86.6745 11.3269 85.6007 11.3916 84.7953 11.6502C83.9228 11.8441 83.1846 12.232 83.1846 13.1372C83.1175 14.0423 83.9228 14.4302 84.7953 14.4302ZM91.6409 4.73242H95.4664V6.80128H95.5336C96.1376 5.31429 97.4799 4.53846 99.1577 4.53846C99.4933 4.53846 100.164 4.53846 100.5 4.60311V8.09432C99.9631 7.96502 99.1577 7.90037 98.6208 7.90037C96.6745 7.90037 95.6678 9.19341 95.6678 10.6804V16.4344H91.7081V4.73242H91.6409Z" fill="#00332C"/>
<path id="Vector_2" d="M96.1914 12.4482H100.502V16.7586H96.1914V12.4482Z" fill="#00332C"/>
</g>
<defs>
<clipPath id="clip0_841_9707">
<rect width="100" height="17.2414" fill="white" transform="translate(0.5 0.378906)"/>
</clipPath>
</defs>
</svg>
