<svg width="49" height="50" viewBox="0 0 49 50" fill="none" xmlns="http://www.w3.org/2000/svg">
<path d="M24.3328 48.7C37.422 48.7 48.0328 38.0892 48.0328 25C48.0328 11.9109 37.422 1.30005 24.3328 1.30005C11.2437 1.30005 0.632812 11.9109 0.632812 25C0.632812 38.0892 11.2437 48.7 24.3328 48.7Z" fill="#FEDB75"/>
<path d="M48.332 24.8799V24.9999C48.332 38.2599 37.592 48.9999 24.332 48.9999C14.012 48.9999 5.19203 42.4599 1.83203 33.2799C7.23203 36.9999 13.772 39.1599 20.852 39.1599C32.192 39.1599 42.272 33.5199 48.332 24.8799Z" fill="#E5C25C"/>
<path d="M24.3328 48.7C37.422 48.7 48.0328 38.0892 48.0328 25C48.0328 11.9109 37.422 1.30005 24.3328 1.30005C11.2437 1.30005 0.632812 11.9109 0.632812 25C0.632812 38.0892 11.2437 48.7 24.3328 48.7Z" stroke="#002C15" stroke-miterlimit="10"/>
<path d="M24 18V32M24 32L31 25M24 32L17 25" stroke="#00332C" stroke-width="2" stroke-linecap="round" stroke-linejoin="round"/>
</svg>
