<svg width="49" height="50" viewBox="0 0 49 50" fill="none" xmlns="http://www.w3.org/2000/svg">
<path d="M24.3328 48.7C37.422 48.7 48.0328 38.0892 48.0328 25C48.0328 11.9109 37.422 1.30005 24.3328 1.30005C11.2437 1.30005 0.632812 11.9109 0.632812 25C0.632812 38.0892 11.2437 48.7 24.3328 48.7Z" fill="#FEDB75"/>
<path d="M48.332 24.8799V24.9999C48.332 38.2599 37.592 48.9999 24.332 48.9999C14.012 48.9999 5.19203 42.4599 1.83203 33.2799C7.23203 36.9999 13.772 39.1599 20.852 39.1599C32.192 39.1599 42.272 33.5199 48.332 24.8799Z" fill="#E5C25C"/>
<path d="M24.3328 48.7C37.422 48.7 48.0328 38.0892 48.0328 25C48.0328 11.9109 37.422 1.30005 24.3328 1.30005C11.2437 1.30005 0.632812 11.9109 0.632812 25C0.632812 38.0892 11.2437 48.7 24.3328 48.7Z" stroke="#002C15" stroke-miterlimit="10"/>
<path d="M21 16.5V15M17.0607 18.0607L16 17M17.0607 26L16 27.0607M25 18.0607L26.0607 17M15.5 22H14M20.5 21.5L24.6111 34.2778L27.5 31.3889L31.1111 35L34 32.1111L30.3889 28.5L33.2778 25.6111L20.5 21.5Z" stroke="#00332C" stroke-width="1.6" stroke-linecap="round" stroke-linejoin="round"/>
</svg>
