<svg width="49" height="50" viewBox="0 0 49 50" fill="none" xmlns="http://www.w3.org/2000/svg">
<path d="M24.6687 48.7C37.7579 48.7 48.3687 38.0892 48.3687 25C48.3687 11.9109 37.7579 1.30005 24.6687 1.30005C11.5796 1.30005 0.96875 11.9109 0.96875 25C0.96875 38.0892 11.5796 48.7 24.6687 48.7Z" fill="#FEDB75"/>
<path d="M48.668 24.8799V24.9999C48.668 38.2599 37.928 48.9999 24.668 48.9999C14.348 48.9999 5.52797 42.4599 2.16797 33.2799C7.56797 36.9999 14.108 39.1599 21.188 39.1599C32.528 39.1599 42.608 33.5199 48.668 24.8799Z" fill="#E5C25C"/>
<path d="M24.6687 48.7C37.7579 48.7 48.3687 38.0892 48.3687 25C48.3687 11.9109 37.7579 1.30005 24.6687 1.30005C11.5796 1.30005 0.96875 11.9109 0.96875 25C0.96875 38.0892 11.5796 48.7 24.6687 48.7Z" stroke="#002C15" stroke-miterlimit="10"/>
<path d="M33 34V32C33 30.9391 32.5786 29.9217 31.8284 29.1716C31.0783 28.4214 30.0609 28 29 28H21C19.9391 28 18.9217 28.4214 18.1716 29.1716C17.4214 29.9217 17 30.9391 17 32V34M29 20C29 22.2091 27.2091 24 25 24C22.7909 24 21 22.2091 21 20C21 17.7909 22.7909 16 25 16C27.2091 16 29 17.7909 29 20Z" stroke="#00332C" stroke-width="1.6" stroke-linecap="round" stroke-linejoin="round"/>
</svg>
