<svg width="50" height="50" viewBox="0 0 50 50" fill="none" xmlns="http://www.w3.org/2000/svg">
<path d="M25.0008 48.7C38.0899 48.7 48.7008 38.0892 48.7008 25C48.7008 11.9109 38.0899 1.30005 25.0008 1.30005C11.9116 1.30005 1.30078 11.9109 1.30078 25C1.30078 38.0892 11.9116 48.7 25.0008 48.7Z" fill="#FEDB75"/>
<path d="M49 24.8799V24.9999C49 38.2599 38.26 48.9999 25 48.9999C14.68 48.9999 5.86 42.4599 2.5 33.2799C7.9 36.9999 14.44 39.1599 21.52 39.1599C32.86 39.1599 42.94 33.5199 49 24.8799Z" fill="#E5C25C"/>
<path d="M25.0008 48.7C38.0899 48.7 48.7008 38.0892 48.7008 25C48.7008 11.9109 38.0899 1.30005 25.0008 1.30005C11.9116 1.30005 1.30078 11.9109 1.30078 25C1.30078 38.0892 11.9116 48.7 25.0008 48.7Z" stroke="#002C15" stroke-miterlimit="10"/>
<path d="M23.4976 26.5002L33.9976 16.0002M23.6251 26.8282L26.2533 33.5862C26.4848 34.1816 26.6005 34.4793 26.7673 34.5662C26.9119 34.6415 27.0842 34.6416 27.2289 34.5664C27.3958 34.4797 27.5119 34.1822 27.7441 33.5871L34.3345 16.6994C34.5441 16.1622 34.6489 15.8936 34.5916 15.722C34.5418 15.5729 34.4248 15.456 34.2758 15.4062C34.1041 15.3488 33.8356 15.4536 33.2984 15.6633L16.4106 22.2536C15.8156 22.4858 15.518 22.602 15.4313 22.7689C15.3561 22.9135 15.3562 23.0858 15.4316 23.2304C15.5185 23.3972 15.8162 23.513 16.4115 23.7445L23.1695 26.3726C23.2904 26.4196 23.3508 26.4431 23.4017 26.4794C23.4468 26.5115 23.4862 26.551 23.5184 26.5961C23.5547 26.647 23.5782 26.7074 23.6251 26.8282Z" stroke="#00332C" stroke-width="1.6" stroke-linecap="round" stroke-linejoin="round"/>
</svg>
