<svg width="16" height="16" viewBox="0 0 16 16" fill="none" xmlns="http://www.w3.org/2000/svg">
<path d="M12.3058 3.01705C12.1278 3.01705 11.9538 3.07067 11.8058 3.17114C11.6578 3.27159 11.5424 3.41439 11.4743 3.58145C11.4062 3.74852 11.3884 3.93235 11.4231 4.10971C11.4578 4.28706 11.5435 4.44997 11.6694 4.57783C11.7953 4.7057 11.9556 4.79278 12.1302 4.82805C12.3048 4.86333 12.4857 4.84523 12.6502 4.77603C12.8147 4.70683 12.9552 4.58964 13.0541 4.43928C13.153 4.28894 13.2058 4.11217 13.2058 3.93134C13.2058 3.68885 13.111 3.4563 12.9422 3.28484C12.7734 3.11338 12.5445 3.01705 12.3058 3.01705ZM15.7558 4.86086C15.7412 4.22871 15.6247 3.60326 15.4108 3.00943C15.2201 2.50134 14.9233 2.04126 14.5408 1.66086C14.1694 1.27033 13.7155 0.970711 13.2133 0.784669C12.6303 0.560792 12.0139 0.439686 11.3908 0.426574C10.5958 0.380859 10.3408 0.380859 8.30078 0.380859C6.26078 0.380859 6.00578 0.380859 5.21078 0.426574C4.58764 0.439686 3.97129 0.560792 3.38828 0.784669C2.88704 0.972593 2.43348 1.27195 2.06078 1.66086C1.67635 2.03814 1.38141 2.49929 1.19828 3.00943C0.977902 3.60169 0.858689 4.22783 0.845781 4.86086C0.800781 5.66848 0.800781 5.92753 0.800781 7.99991C0.800781 10.0723 0.800781 10.3313 0.845781 11.139C0.858689 11.7719 0.977902 12.3982 1.19828 12.9904C1.38141 13.5006 1.67635 13.9617 2.06078 14.339C2.43348 14.7278 2.88704 15.0273 3.38828 15.2151C3.97129 15.439 4.58764 15.5601 5.21078 15.5732C6.00578 15.619 6.26078 15.619 8.30078 15.619C10.3408 15.619 10.5958 15.619 11.3908 15.5732C12.0139 15.5601 12.6303 15.439 13.2133 15.2151C13.7155 15.0291 14.1694 14.7295 14.5408 14.339C14.9249 13.96 15.222 13.4995 15.4108 12.9904C15.6247 12.3966 15.7412 11.7711 15.7558 11.139C15.7558 10.3313 15.8008 10.0723 15.8008 7.99991C15.8008 5.92753 15.8008 5.66848 15.7558 4.86086ZM14.4058 11.0475C14.4003 11.5312 14.3141 12.0103 14.1508 12.4647C14.031 12.7963 13.8387 13.0958 13.5883 13.3409C13.345 13.5927 13.0507 13.7876 12.7258 13.9123C12.2786 14.0782 11.8069 14.1658 11.3308 14.1713C10.5808 14.2094 10.3033 14.217 8.33078 14.217C6.35828 14.217 6.08078 14.2171 5.33078 14.1713C4.83645 14.1807 4.34422 14.1034 3.87578 13.9428C3.56512 13.8118 3.2843 13.6173 3.05078 13.3713C2.80185 13.1265 2.61191 12.8267 2.49578 12.4951C2.31268 12.0343 2.21111 11.5442 2.19578 11.0475C2.19578 10.2856 2.15078 10.0037 2.15078 7.99991C2.15078 5.9961 2.15078 5.71419 2.19578 4.95229C2.19914 4.45786 2.28799 3.96787 2.45828 3.50467C2.59032 3.18308 2.79298 2.89641 3.05078 2.66657C3.27864 2.40461 3.56025 2.19655 3.87578 2.05705C4.33294 1.88946 4.81478 1.80187 5.30078 1.798C6.05078 1.798 6.32828 1.75229 8.30078 1.75229C10.2733 1.75229 10.5508 1.75229 11.3008 1.798C11.7769 1.80355 12.2486 1.89115 12.6958 2.05705C13.0366 2.18555 13.3425 2.39446 13.5883 2.66657C13.8341 2.90062 14.0261 3.18675 14.1508 3.50467C14.3175 3.96862 14.4038 4.45841 14.4058 4.95229C14.4433 5.71419 14.4508 5.9961 14.4508 7.99991C14.4508 10.0037 14.4433 10.2856 14.4058 11.0475ZM8.30078 4.09134C7.54014 4.09284 6.797 4.32336 6.16527 4.75375C5.53354 5.18414 5.04157 5.79511 4.7515 6.50943C4.46145 7.22376 4.38632 8.00943 4.53562 8.76707C4.68493 9.52478 5.05196 10.2205 5.59034 10.7664C6.12872 11.3122 6.81429 11.6837 7.56043 11.8339C8.30656 11.9841 9.07981 11.9063 9.78241 11.6102C10.485 11.3142 11.0855 10.8132 11.5079 10.1706C11.9303 9.52798 12.1558 8.77263 12.1558 7.99991C12.1568 7.4857 12.0577 6.97637 11.8642 6.50121C11.6708 6.02605 11.3867 5.59443 11.0285 5.23118C10.6702 4.86794 10.2447 4.58023 9.77663 4.38462C9.30848 4.189 8.80696 4.08932 8.30078 4.09134ZM8.30078 10.5371C7.80682 10.5371 7.32396 10.3883 6.91324 10.1095C6.50254 9.83069 6.18242 9.43442 5.99339 8.9708C5.80436 8.50726 5.75491 7.99709 5.85127 7.50494C5.94763 7.01278 6.1855 6.5607 6.53478 6.20587C6.88406 5.85105 7.32907 5.60941 7.81354 5.51151C8.29801 5.41362 8.80021 5.46386 9.25651 5.65589C9.71288 5.84792 10.103 6.17312 10.3774 6.59035C10.6518 7.00758 10.7983 7.49811 10.7983 7.99991C10.7983 8.33309 10.7337 8.66299 10.6082 8.9708C10.4827 9.27869 10.2987 9.55831 10.0668 9.79396C9.83483 10.0295 9.55958 10.2164 9.25651 10.3439C8.95351 10.4714 8.62876 10.5371 8.30078 10.5371Z" fill="white"/>
</svg>
