<svg width="16" height="13" viewBox="0 0 16 13" fill="none" xmlns="http://www.w3.org/2000/svg">
<path d="M15.2205 1.78602C14.7346 1.97444 14.2328 2.1079 13.715 2.17071C13.7071 2.16286 13.6991 2.16286 13.6911 2.15501C14.3363 1.75461 14.7824 1.1972 15.0293 0.474911C15.0054 0.490613 14.9975 0.490614 14.9815 0.498464C14.3921 0.836052 13.7629 1.07158 13.0937 1.2129C13.0539 1.22075 13.0301 1.2129 13.0062 1.18149C12.2893 0.482763 11.4211 0.168725 10.4174 0.270787C9.74839 0.341445 9.16691 0.592675 8.67302 1.04803C7.81278 1.84098 7.49418 2.82234 7.70925 3.96857C7.71721 4.01568 7.7172 4.03138 7.66145 4.03138C7.28708 4.00782 6.90474 3.96857 6.53833 3.89792C5.75774 3.7566 5.00902 3.51322 4.30011 3.16778C3.21683 2.64962 2.28489 1.94303 1.48836 1.04803C1.42464 0.97737 1.36093 0.906715 1.2972 0.828203C1.05825 1.18934 0.843183 1.80957 0.87504 2.46905C0.92283 3.51322 1.39278 4.32186 2.24506 4.92639C1.74325 4.91068 1.28125 4.77722 0.843166 4.54169C0.843166 5.27968 1.06621 5.93915 1.53616 6.50443C2.00611 7.07754 2.6035 7.43083 3.34428 7.5957C3.32038 7.60355 3.30445 7.6114 3.28852 7.6114C2.86637 7.71347 2.43623 7.72916 2.00611 7.65851C1.94238 7.65065 1.94238 7.65066 1.96628 7.71347C2.06186 7.98825 2.1893 8.23951 2.35657 8.47497C2.85838 9.16592 3.52747 9.58981 4.37179 9.73898C4.52312 9.77042 4.68244 9.77822 4.85768 9.78611C3.48765 10.8146 1.95832 11.2306 0.261719 11.0658C0.269684 11.0737 0.277642 11.0815 0.293572 11.0894C0.914863 11.4741 1.57598 11.7802 2.26896 12.0079C3.04159 12.2591 3.83016 12.4005 4.64262 12.4318C5.06477 12.4476 5.49491 12.4397 5.91706 12.4005C6.38701 12.3612 6.84899 12.2827 7.31098 12.1728C8.89609 11.7802 10.2502 11.003 11.3812 9.84103C12.3052 8.88326 12.9742 7.77627 13.4124 6.52797C13.6513 5.85279 13.8027 5.15406 13.8664 4.43963C13.8983 4.07849 13.9062 3.71734 13.8903 3.3562C13.8903 3.3091 13.9062 3.28554 13.9381 3.25414C14.5036 2.83804 14.9895 2.35128 15.3878 1.77816C15.3957 1.76246 15.4196 1.74676 15.4196 1.71536C15.348 1.73891 15.2842 1.76246 15.2205 1.78602Z" fill="white"/>
</svg>
